Coordinates
version=1
nRows=19
nColumns=24
inDegrees=yes

Units are S.I. units (second, meters, Newtons, ...)
Angles are in degrees.

endheader
time	pelvis_tilt	pelvis_list	pelvis_rotation	pelvis_tx	pelvis_ty	pelvis_tz	hip_flexion_r	hip_adduction_r	hip_rotation_r	knee_angle_r	ankle_angle_r	subtalar_angle_r	mtp_angle_r	hip_flexion_l	hip_adduction_l	hip_rotation_l	knee_angle_l	ankle_angle_l	subtalar_angle_l	mtp_angle_l	lumbar_extension	lumbar_bending	lumbar_rotation
      1.38850000	      0.25294984	      1.68971982	     -4.45749743	      0.19570606	      1.02020345	      0.28422068	     15.50611766	     -5.81977783	     -4.27888561	    -67.46020738	     -0.55800193	    -11.57436536	     -4.31786849	     10.59823160	      2.74778187	     -8.19364135	    -12.68928017	      0.12612630	    -14.98932635	    -14.45597586	     -9.52384438	     -4.60680604	      5.22424721
      1.39266667	      0.27141388	      1.52191580	     -4.23872985	      0.20049740	      1.02104698	      0.28339863	     15.99305527	     -5.62846381	     -4.53492555	    -67.18184240	     -0.32311969	    -11.59274578	     -4.46532152	     10.18894218	      2.67293121	     -7.98710424	    -12.51842770	      0.26695734	    -14.88374252	    -14.48450107	     -9.62124968	     -4.35412976	      5.00008595
      1.39683333	      0.32148864	      1.34631370	     -4.02016803	      0.20527180	      1.02192362	      0.28259024	     16.42812350	     -5.43556871	     -4.80493470	    -66.83265583	     -0.09358312	    -11.59293767	     -4.60759605	      9.74102685	      2.58719982	     -7.78232304	    -12.33505444	      0.40322004	    -14.76760265	    -14.51085998	     -9.75762085	     -4.09946749	      4.77420278
      1.40100000	      0.32330186	      1.20013857	     -3.86589750	      0.21001986	      1.02267400	      0.28194159	     16.93263286	     -5.24685744	     -5.00623869	    -66.45796976	      0.16622865	    -11.62062499	     -4.67651130	      9.34201161	      2.50885961	     -7.65926525	    -12.13919065	      0.47683039	    -14.67297519	    -14.52323481	     -9.83564639	     -3.87865999	      4.65248862
      1.40516667	      0.39090570	      1.00504209	     -3.58763921	      0.21483935	      1.02356461	      0.28099641	     17.28864919	     -5.07451787	     -5.37530486	    -65.95106356	      0.32226241	    -11.61050365	     -4.81833930	      8.87606765	      2.40836043	     -7.40297310	    -11.96233677	      0.67724839	    -14.50251422	    -14.54495710	     -9.98049000	     -3.58994338	      4.33856710
      1.40933333	      0.46166723	      0.82545648	     -3.34897705	      0.21962855	      1.02442813	      0.28015416	     17.64197049	     -4.90348235	     -5.70272458	    -65.40046525	      0.52366485	    -11.59225292	     -4.96519612	      8.39698900	      2.31370664	     -7.18348302	    -11.75312240	      0.78947746	    -14.39718608	    -14.56964638	    -10.13108018	     -3.32263015	      4.08158128
      1.41350000	      0.51059708	      0.65394642	     -3.13088855	      0.22441553	      1.02522034	      0.27938573	     18.01126733	     -4.73249806	     -6.01423292	    -64.79913470	      0.71541559	    -11.58649228	     -5.09282577	      7.94282535	      2.21338190	     -7.00447350	    -11.54658393	      0.90475510	    -14.26969195	    -14.58965810	    -10.25168353	     -3.06966431	      3.86816518
      1.41766667	      0.58746731	      0.48543039	     -2.90126581	      0.22921095	      1.02603312	      0.27857253	     18.32789539	     -4.57946147	     -6.34977633	    -64.13486410	      0.90015491	    -11.59377953	     -5.22818230	      7.45392298	      2.11918098	     -6.81714696	    -11.32871682	      1.02673854	    -14.13154665	    -14.61015440	    -10.40367042	     -2.80600011	      3.62665093
      1.42183333	      0.67359534	      0.31376849	     -2.67628190	      0.23401441	      1.02683775	      0.27779616	     18.61378295	     -4.42263143	     -6.68877847	    -63.40493956	      1.07536600	    -11.58365342	     -5.35811827	      6.95298701	      2.01454046	     -6.64146035	    -11.10649510	      1.14551376	    -13.99321166	    -14.62856227	    -10.56070928	     -2.55249111	      3.40397748
      1.42600000	      0.75758103	      0.15424034	     -2.45293961	      0.23880434	      1.02760471	      0.27705025	     18.88852430	     -4.27640298	     -7.02552528	    -62.62510566	      1.25385777	    -11.58954049	     -5.49264367	      6.45287999	      1.91799107	     -6.45974491	    -10.87501821	      1.25094648	    -13.86003485	    -14.64705807	    -10.72190201	     -2.31538352	      3.16458565
      1.43016667	      0.83178781	     -0.00410287	     -2.22563691	      0.24362521	      1.02833000	      0.27628963	     19.15053358	     -4.13979439	     -7.37952071	    -61.78320304	      1.41396313	    -11.58675925	     -5.61997176	      5.96454079	      1.81810179	     -6.29690567	    -10.64786411	      1.37118586	    -13.72245940	    -14.66277433	    -10.85775411	     -2.06959473	      2.94829594
      1.43433333	      0.94279679	     -0.15921114	     -2.00334044	      0.24844068	      1.02908297	      0.27554578	     19.35331739	     -4.00757867	     -7.73303925	    -60.88310232	      1.57575825	    -11.58872741	     -5.75179894	      5.43086082	      1.71936601	     -6.13908466	    -10.40508092	      1.48113667	    -13.58283817	    -14.67796571	    -11.03775652	     -1.83114245	      2.71001189
      1.43850000	      1.06027832	     -0.30305940	     -1.78262045	      0.25326023	      1.02980656	      0.27481814	     19.53070619	     -3.88836032	     -8.08818677	    -59.93063497	      1.73185278	    -11.59412148	     -5.88449251	      4.88901458	      1.62843560	     -5.98461463	    -10.15703452	      1.58954629	    -13.45391463	    -14.69094812	    -11.22102490	     -1.60333957	      2.48955310
      1.44266667	      1.16824649	     -0.43044638	     -1.55279465	      0.25809052	      1.03047881	      0.27407982	     19.69866813	     -3.79174126	     -8.45757350	    -58.93223280	      1.91359597	    -11.62661816	     -6.05185717	      4.35814158	      1.55384143	     -5.81885358	     -9.90536875	      1.67392970	    -13.35196980	    -14.70700983	    -11.39429041	     -1.39207681	      2.23475832
      1.44683333	      1.24833258	     -0.56532506	     -1.34887521	      0.26292784	      1.03106506	      0.27341843	     19.88366764	     -3.67340979	     -8.80111443	    -57.87777058	      2.03373872	    -11.61334483	     -6.17186199	      3.86143608	      1.45805702	     -5.69783274	     -9.66882420	      1.80976111	    -13.20246427	    -14.71477157	    -11.52651082	     -1.17968944	      2.06965040
      1.45100000	      1.35370506	     -0.68142469	     -1.14344856	      0.26777726	      1.03166054	      0.27275899	     20.01907328	     -3.57806395	     -9.14993550	    -56.77280955	      2.17172328	    -11.62061745	     -6.29935057	      3.33076552	      1.38244309	     -5.56953817	     -9.41424093	      1.91399318	    -13.08578599	    -14.72161112	    -11.68688233	     -0.98359779	      1.84227783
      1.45516667	      1.43348240	     -0.79091645	     -0.93304227	      0.27262397	      1.03217106	      0.27209630	     20.16370665	     -3.49071103	     -9.50585748	    -55.62102248	      2.30806391	    -11.63305579	     -6.42395690	      2.83464204	      1.31037159	     -5.43348477	     -9.17071455	      2.02637001	    -12.97244516	    -14.72585502	    -11.81686417	     -0.79615206	      1.64265430
      1.45933333	      1.52687713	     -0.88727036	     -0.72827090	      0.27747414	      1.03266305	      0.27146576	     20.27462319	     -3.41377909	     -9.85685071	    -54.42113278	      2.44448131	    -11.64887781	     -6.55579868	      2.32189876	      1.24788417	     -5.30521074	     -8.92235516	      2.13397057	    -12.86477942	    -14.72916831	    -11.96096417	     -0.62514187	      1.42682389
      1.46350000	      1.63035108	     -0.97326120	     -0.53405396	      0.28232407	      1.03312495	      0.27086692	     20.35727241	     -3.34294568	    -10.19957074	    -53.17504867	      2.57582022	    -11.66545102	     -6.69031495	      1.79777844	      1.19222524	     -5.18545616	     -8.67275730	      2.24100786	    -12.76246934	    -14.73068336	    -12.11462064	     -0.46714301	      1.23237512
